<svg id="svg2989" xmlns="http://www.w3.org/2000/svg" viewBox="0 0 226.36 235.79">
    <defs>
        <style>
            g {
            display: none;
            }
            g:target {
            display: inline;
            }
        </style>
    </defs>
    <title>sprite</title>
    <g id="angle-down">
        <path id="path2993" d="M228.27,119a5.32,5.32,0,0,1-1.67,3.85l-78,78a5.25,5.25,0,0,1-7.7,0l-78-78a5.27,5.27,0,0,1,0-7.7l8.37-8.37a5.25,5.25,0,0,1,7.7,0l65.79,65.79,65.8-65.79a5.25,5.25,0,0,1,7.7,0l8.37,8.37A5.3,5.3,0,0,1,228.27,119Z" transform="translate(-36.82 -32.1)"/>
    </g>
    <g id="angle-left">
        <path id="path3005" d="M197.41,79.73a5.29,5.29,0,0,1-1.68,3.85l-65.79,65.79,65.79,65.79a5.25,5.25,0,0,1,0,7.7l-8.37,8.37a5.25,5.25,0,0,1-7.7,0l-78-78a5.25,5.25,0,0,1,0-7.7l78-78a5.27,5.27,0,0,1,7.7,0l8.37,8.37A5.3,5.3,0,0,1,197.41,79.73Z" transform="translate(-36.82 -32.1)"/>
    </g>
    <g id="angle-right">
        <path id="path3017" d="M197.22,149.91a5.32,5.32,0,0,1-1.67,3.85l-78,78a5.25,5.25,0,0,1-7.7,0l-8.37-8.37a5.27,5.27,0,0,1,0-7.7l65.79-65.79L101.46,84.12a5.27,5.27,0,0,1,0-7.7l8.37-8.37a5.25,5.25,0,0,1,7.7,0l78,78A5.32,5.32,0,0,1,197.22,149.91Z" transform="translate(-36.82 -32.1)"/>
    </g>
    <g id="angle-up">
        <path id="path6" d="M232.81,184.22a5.26,5.26,0,0,1-1.67,3.85l-8.37,8.37a5.25,5.25,0,0,1-7.7,0l-65.79-65.79-65.8,65.79a5.25,5.25,0,0,1-7.7,0l-8.37-8.37a5.27,5.27,0,0,1,0-7.7l78-78a5.27,5.27,0,0,1,7.7,0l78,78A5.28,5.28,0,0,1,232.81,184.22Z" transform="translate(-36.82 -32.1)"/>
    </g>
    <g id="close">
        <polygon points="204.21 35.42 200.3 31.3 113.18 113.98 26.06 31.3 22.15 35.42 109.05 117.89 22.15 200.36 26.06 204.49 113.18 121.81 200.3 204.49 204.21 200.36 117.31 117.89 204.21 35.42" style="fill: #f64850;stroke: #ffa200"/>
    </g>
    <g id="double-angle-right">
        <path id="path6-2" data-name="path6" d="M166.57,150a5.28,5.28,0,0,1-1.67,3.85l-78,78a5.25,5.25,0,0,1-7.7,0l-8.38-8.37a5.27,5.27,0,0,1,0-7.7L136.61,150,70.81,84.21a5.27,5.27,0,0,1,0-7.7l8.38-8.37a5.25,5.25,0,0,1,7.7,0l78,78A5.28,5.28,0,0,1,166.57,150Zm64.29,0a5.32,5.32,0,0,1-1.67,3.85l-78,78a5.25,5.25,0,0,1-7.7,0l-8.37-8.37a5.27,5.27,0,0,1,0-7.7L200.89,150,135.1,84.21a5.27,5.27,0,0,1,0-7.7l8.37-8.37a5.25,5.25,0,0,1,7.7,0l78,78A5.32,5.32,0,0,1,230.86,150Z" transform="translate(-36.82 -32.1)"/>
    </g>
    <g id="spinner">
        <path id="path3029" d="M109.92,220.74A21.27,21.27,0,0,1,88.69,242a21.22,21.22,0,1,1,15-36.25A20.31,20.31,0,0,1,109.92,220.74ZM173.58,249a18.88,18.88,0,1,1-5.53-13.33A18.15,18.15,0,0,1,173.58,249ZM84,154.72A23.66,23.66,0,0,1,60.4,178.3a23.55,23.55,0,0,1-16.65-40.24,22.7,22.7,0,0,1,16.65-6.92A23.64,23.64,0,0,1,84,154.72Zm153.26,66a16.61,16.61,0,1,1-4.86-11.64A15.88,15.88,0,0,1,237.24,220.74Zm-122.61-132a25.91,25.91,0,0,1-25.94,25.94A25.91,25.91,0,0,1,62.76,88.69,25.91,25.91,0,0,1,88.69,62.76a25.91,25.91,0,0,1,25.94,25.93ZM183,60.4a28.35,28.35,0,0,1-48.34,20,27.28,27.28,0,0,1-8.25-20,28.34,28.34,0,0,1,48.34-20A27.28,27.28,0,0,1,183,60.4Zm80.17,94.32a14.08,14.08,0,1,1-4.13-10A13.61,13.61,0,0,1,263.18,154.72Zm-30.65-66a11.85,11.85,0,1,1-3.47-8.32A11.35,11.35,0,0,1,232.53,88.69Z" transform="translate(-36.82 -32.1)"/>
    </g>
    <g id="star">
        <path id="path6-3" data-name="path6" d="M254.85,127.5q0,2.77-3.27,6.05l-45.75,44.62,10.84,63a20,20,0,0,1,.12,2.52,7.44,7.44,0,0,1-1.32,4.47,4.44,4.44,0,0,1-3.84,1.83,10.21,10.21,0,0,1-5-1.51L150,218.75,93.42,248.49a10.69,10.69,0,0,1-5,1.51,4.59,4.59,0,0,1-4-1.83,7.44,7.44,0,0,1-1.32-4.47,21.84,21.84,0,0,1,.25-2.52l10.84-63L48.3,133.55q-3.15-3.39-3.15-6.05c0-3.1,2.35-5,7.06-5.79l63.26-9.2,28.35-57.34Q146.22,50,150,50t6.18,5.17l28.35,57.34,63.26,9.2C252.5,122.46,254.85,124.4,254.85,127.5Z" transform="translate(-36.82 -32.1)"/>
    </g>
    <g id="star-half">
        <path id="path2993-2" data-name="path2993" d="M150,50V218.75L93.42,248.49a10.69,10.69,0,0,1-5,1.51,4.59,4.59,0,0,1-4-1.83,7.44,7.44,0,0,1-1.32-4.47,21.84,21.84,0,0,1,.25-2.52l10.84-63L48.3,133.55q-3.15-3.39-3.15-6.05c0-3.1,2.35-5,7.06-5.79l63.26-9.2,28.35-57.34Q146.22,50,150,50Z" transform="translate(-36.82 -32.1)"/>
    </g>
    <g id="check-circle-solid">
        <path d="M237,150A86.95,86.95,0,1,1,150,63.05,87,87,0,0,1,237,150Zm-97,46,64.52-64.51a5.62,5.62,0,0,0,0-7.94l-7.94-7.93a5.61,5.61,0,0,0-7.93,0L136,168.27l-24.57-24.56a5.61,5.61,0,0,0-7.93,0l-7.94,7.93a5.62,5.62,0,0,0,0,7.94L132,196a5.61,5.61,0,0,0,7.93,0Z" transform="translate(-36.82 -32.1)"/>
    </g>
    <g id="check-solid">
        <path d="M118.42,220.54l-64-64a9.84,9.84,0,0,1,0-13.93l13.92-13.92a9.84,9.84,0,0,1,13.93,0l43.11,43.12,92.35-92.35a9.84,9.84,0,0,1,13.93,0l13.92,13.92a9.84,9.84,0,0,1,0,13.93L132.35,220.54a9.84,9.84,0,0,1-13.93,0Z" transform="translate(-36.82 -32.1)"/>
    </g>
    <g id="download">
        <path d="M136.94,66.41h26.12a7.82,7.82,0,0,1,7.84,7.83V129.1h28.64a6.52,6.52,0,0,1,4.6,11.14l-49.67,49.7a6.34,6.34,0,0,1-8.91,0l-49.73-49.7a6.52,6.52,0,0,1,4.6-11.14H129.1V74.24A7.82,7.82,0,0,1,136.94,66.41Zm96.65,122.77v36.58a7.81,7.81,0,0,1-7.83,7.83H74.24a7.81,7.81,0,0,1-7.83-7.83V189.18a7.81,7.81,0,0,1,7.83-7.83h47.91l16,16a16.73,16.73,0,0,0,23.7,0l16-16h47.91A7.81,7.81,0,0,1,233.59,189.18ZM193.1,217.92a6.53,6.53,0,1,0-6.53,6.53A6.55,6.55,0,0,0,193.1,217.92Zm20.9,0a6.53,6.53,0,1,0-6.53,6.53A6.55,6.55,0,0,0,214,217.92Z" transform="translate(-36.82 -32.1)"/>
    </g>
</svg>
