<svg id="Group_5" data-name="Group 5" xmlns="http://www.w3.org/2000/svg" width="228" height="119.565" viewBox="0 0 228 119.565">
  <path id="Rectangle_15" data-name="Rectangle 15" d="M8,0H8a8,8,0,0,1,8,8V119.565a0,0,0,0,1,0,0H0a0,0,0,0,1,0,0V8A8,8,0,0,1,8,0Z" transform="translate(212)" fill="#ed2738"/>
  <path id="Rectangle_15_Copy" data-name="Rectangle 15 Copy" d="M8,0H8a8,8,0,0,1,8,8V110.957a0,0,0,0,1,0,0H0a0,0,0,0,1,0,0V8A8,8,0,0,1,8,0Z" transform="translate(192.727 8.609)" fill="#ff4c57"/>
  <path id="Rectangle_15_Copy_2" data-name="Rectangle 15 Copy 2" d="M8,0H8a8,8,0,0,1,8,8v94.348a0,0,0,0,1,0,0H0a0,0,0,0,1,0,0V8A8,8,0,0,1,8,0Z" transform="translate(173.455 17.217)" fill="#fe8eba"/>
  <path id="Rectangle_15_Copy_3" data-name="Rectangle 15 Copy 3" d="M8,0H8a8,8,0,0,1,8,8V93.739a0,0,0,0,1,0,0H0a0,0,0,0,1,0,0V8A8,8,0,0,1,8,0Z" transform="translate(154.182 25.826)" fill="#fe8eba"/>
  <path id="Rectangle_15_Copy_4" data-name="Rectangle 15 Copy 4" d="M8,0H8a8,8,0,0,1,8,8V85.13a0,0,0,0,1,0,0H0a0,0,0,0,1,0,0V8A8,8,0,0,1,8,0Z" transform="translate(134.909 34.435)" fill="#c0d2fc" opacity="0.9"/>
  <path id="Rectangle_15_Copy_5" data-name="Rectangle 15 Copy 5" d="M8,0H8a8,8,0,0,1,8,8V76.522a0,0,0,0,1,0,0H0a0,0,0,0,1,0,0V8A8,8,0,0,1,8,0Z" transform="translate(115.636 43.043)" fill="#c0d2fc" opacity="0.9"/>
  <path id="Rectangle_15_Copy_6" data-name="Rectangle 15 Copy 6" d="M8,0H8a8,8,0,0,1,8,8V67.913a0,0,0,0,1,0,0H0a0,0,0,0,1,0,0V8A8,8,0,0,1,8,0Z" transform="translate(96.364 51.652)" fill="#c0d2fc" opacity="0.9"/>
  <path id="Rectangle_15_Copy_7" data-name="Rectangle 15 Copy 7" d="M8,0H8a8,8,0,0,1,8,8V59.3a0,0,0,0,1,0,0H0a0,0,0,0,1,0,0V8A8,8,0,0,1,8,0Z" transform="translate(77.091 60.261)" fill="#c0d2fc" opacity="0.9"/>
  <path id="Rectangle_15_Copy_8" data-name="Rectangle 15 Copy 8" d="M8,0H8a8,8,0,0,1,8,8V50.7a0,0,0,0,1,0,0H0a0,0,0,0,1,0,0V8A8,8,0,0,1,8,0Z" transform="translate(57.818 68.87)" fill="#c0d2fc" opacity="0.9"/>
  <path id="Rectangle_15_Copy_9" data-name="Rectangle 15 Copy 9" d="M8,0H8a8,8,0,0,1,8,8V42.087a0,0,0,0,1,0,0H0a0,0,0,0,1,0,0V8A8,8,0,0,1,8,0Z" transform="translate(38.545 77.478)" fill="#c0d2fc" opacity="0.9"/>
  <path id="Rectangle_15_Copy_10" data-name="Rectangle 15 Copy 10" d="M8,0H8a8,8,0,0,1,8,8V33.478a0,0,0,0,1,0,0H0a0,0,0,0,1,0,0V8A8,8,0,0,1,8,0Z" transform="translate(19.273 86.087)" fill="#c0d2fc" opacity="0.9"/>
  <path id="Rectangle_15_Copy_11" data-name="Rectangle 15 Copy 11" d="M8,0H8a8,8,0,0,1,8,8V24.87a0,0,0,0,1,0,0H0a0,0,0,0,1,0,0V8A8,8,0,0,1,8,0Z" transform="translate(0 94.696)" fill="#c0d2fc" opacity="0.9"/>
</svg>
